<svg xmlns="http://www.w3.org/2000/svg" xmlns:xlink="http://www.w3.org/1999/xlink" width="500" zoomAndPan="magnify" viewBox="0 0 375 374.999991" height="500" preserveAspectRatio="xMidYMid meet" version="1.0"><path fill="#26d199" d="M 187.566406 36.335938 C 147.171875 36.335938 109.195312 52.066406 80.632812 80.632812 C 52.066406 109.195312 36.335938 147.171875 36.335938 187.566406 C 36.335938 227.960938 52.066406 265.9375 80.632812 294.5 C 109.195312 323.066406 147.171875 338.796875 187.566406 338.796875 C 227.960938 338.796875 265.9375 323.066406 294.5 294.5 C 323.066406 265.9375 338.796875 227.960938 338.796875 187.566406 C 338.796875 147.171875 323.066406 109.195312 294.5 80.632812 C 265.9375 52.066406 227.960938 36.335938 187.566406 36.335938 Z M 187.566406 375.089844 C 162.257812 375.089844 137.699219 370.128906 114.566406 360.347656 C 92.234375 350.902344 72.183594 337.382812 54.96875 320.164062 C 37.75 302.949219 24.230469 282.898438 14.785156 260.566406 C 5.003906 237.433594 0.0429688 212.875 0.0429688 187.566406 C 0.0429688 162.257812 5.003906 137.699219 14.785156 114.566406 C 24.230469 92.234375 37.75 72.183594 54.96875 54.96875 C 72.183594 37.75 92.234375 24.230469 114.566406 14.785156 C 137.699219 5.003906 162.257812 0.0429688 187.566406 0.0429688 C 212.875 0.0429688 237.433594 5.003906 260.566406 14.785156 C 282.898438 24.230469 302.949219 37.75 320.164062 54.96875 C 337.382812 72.183594 350.902344 92.234375 360.347656 114.566406 C 370.128906 137.699219 375.089844 162.257812 375.089844 187.566406 C 375.089844 212.875 370.128906 237.433594 360.347656 260.566406 C 350.902344 282.898438 337.382812 302.949219 320.164062 320.164062 C 302.949219 337.382812 282.898438 350.902344 260.566406 360.347656 C 237.433594 370.128906 212.875 375.089844 187.566406 375.089844 " fill-opacity="1" fill-rule="nonzero"/><path fill="#26d199" d="M 285.753906 123.847656 L 251.285156 89.378906 L 187.566406 153.09375 L 123.847656 89.378906 L 89.378906 123.847656 L 153.09375 187.566406 L 89.378906 251.285156 L 123.847656 285.753906 L 187.566406 222.039062 L 251.285156 285.753906 L 285.753906 251.285156 L 222.039062 187.566406 L 285.753906 123.847656 " fill-opacity="1" fill-rule="nonzero"/></svg>